HIERARCHY
ROOT root
{
	OFFSET 0.000000 0.000000 0.000000
	CHANNELS 6 Xposition Yposition Zposition Zrotation Yrotation Xrotation
	JOINT lhip
	{
		OFFSET 0.058581 -0.082280 -0.017664
		CHANNELS 3 Zrotation Yrotation Xrotation
		JOINT lknee
		{
			OFFSET 0.043451 -0.386469 0.008037
			CHANNELS 3 Zrotation Yrotation Xrotation
			JOINT lankle
			{
				OFFSET -0.014790 -0.426874 -0.037428
				CHANNELS 3 Zrotation Yrotation Xrotation
				JOINT ltoe
				{
					OFFSET 0.041054 -0.060286 0.122042
					CHANNELS 3 Zrotation Yrotation Xrotation
					End Site
					{
						OFFSET 0.000000 0.000000 0.000000
					}
				}
			}
		}
	}
	JOINT rhip
	{
		OFFSET -0.060310 -0.090513 -0.013543
		CHANNELS 3 Zrotation Yrotation Xrotation
		JOINT rknee
		{
			OFFSET -0.043257 -0.383688 -0.004843
			CHANNELS 3 Zrotation Yrotation Xrotation
			JOINT rankle
			{
				OFFSET 0.019056 -0.420046 -0.034562
				CHANNELS 3 Zrotation Yrotation Xrotation
				JOINT rtoe
				{
					OFFSET -0.034840 -0.062106 0.130323
					CHANNELS 3 Zrotation Yrotation Xrotation
					End Site
					{
						OFFSET 0.000000 0.000000 0.000000
					}
				}
			}
		}
	}
	JOINT lowerback
	{
		OFFSET 0.004439 0.124404 -0.038385
		CHANNELS 3 Zrotation Yrotation Xrotation
		JOINT upperback
		{
			OFFSET 0.004488 0.137956 0.026820
			CHANNELS 3 Zrotation Yrotation Xrotation
			JOINT chest
			{
				OFFSET -0.002265 0.056032 0.002855
				CHANNELS 3 Zrotation Yrotation Xrotation
				JOINT lowerneck
				{
					OFFSET -0.013390 0.211636 -0.033468
					CHANNELS 3 Zrotation Yrotation Xrotation
					JOINT upperneck
					{
						OFFSET 0.010113 0.088937 0.050410
						CHANNELS 3 Zrotation Yrotation Xrotation
						End Site
						{
							OFFSET 0.000000 0.000000 0.000000
						}
					}
				}
				JOINT lclavicle
				{
					OFFSET 0.071702 0.114000 -0.018898
					CHANNELS 3 Zrotation Yrotation Xrotation
					JOINT lshoulder
					{
						OFFSET 0.122921 0.045205 -0.019046
						CHANNELS 3 Zrotation Yrotation Xrotation
						JOINT lelbow
						{
							OFFSET 0.255332 -0.015649 -0.022946
							CHANNELS 3 Zrotation Yrotation Xrotation
							JOINT lwrist
							{
								OFFSET 0.265709 0.012698 -0.007375
								CHANNELS 3 Zrotation Yrotation Xrotation
								End Site
								{
									OFFSET 0.000000 0.000000 0.000000
								}
							}
						}
					}
				}
				JOINT rclavicle
				{
					OFFSET -0.082954 0.112472 -0.023707
					CHANNELS 3 Zrotation Yrotation Xrotation
					JOINT rshoulder
					{
						OFFSET -0.113228 0.046853 -0.008472
						CHANNELS 3 Zrotation Yrotation Xrotation
						JOINT relbow
						{
							OFFSET -0.260127 -0.014369 -0.031269
							CHANNELS 3 Zrotation Yrotation Xrotation
							JOINT rwrist
							{
								OFFSET -0.269108 0.006794 -0.006027
								CHANNELS 3 Zrotation Yrotation Xrotation
								End Site
								{
									OFFSET 0.000000 0.000000 0.000000
								}
							}
						}
					}
				}
			}
		}
	}
}
MOTION
Frames: 7
Frame Time: 0.033333
-1.194028 0.831943 0.972398 97.802796 0.483615 89.966033 4.873611 6.683504 22.510672 -6.444424 -11.805780 9.504056 -5.380123 6.881957 -11.705796 0.000000 -0.000000 0.000000 -1.632894 2.010946 -25.546669 2.604722 -11.273760 14.345588 3.820844 -8.286514 1.169796 0.000000 -0.000000 0.000000 0.332300 -7.867787 10.127179 1.945502 -0.309424 7.102510 0.717097 -2.172989 0.902399 3.127695 -5.535045 -7.683509 2.975546 -6.867760 -5.621932 -25.694489 5.298444 3.414478 -58.398064 -6.088496 11.313259 10.008761 -49.071760 6.865622 11.438554 -9.364218 -5.961512 24.723323 0.174350 3.944833 55.937287 -1.808183 13.454030 -6.587949 32.770957 4.812078 -0.082462 6.614955 -3.638402 
-1.156017 0.829077 0.976019 97.139573 0.957695 90.184768 5.979563 6.430023 19.504655 -7.737371 -8.645364 17.950142 -6.824387 6.253935 -5.329090 0.000000 -0.000000 0.000000 -1.003691 2.582938 -24.947458 3.096860 -11.149449 17.580136 2.292753 -7.569798 -1.002646 0.000000 -0.000000 0.000000 1.071488 -8.027787 9.959642 2.299920 -0.270232 6.904612 0.448587 -2.093163 0.544385 2.655208 -5.030771 -7.385708 2.891206 -6.328231 -5.351014 -25.630449 5.493384 3.691280 -58.295044 -5.138780 11.576301 10.497879 -50.114715 8.727963 9.474551 -7.651021 -6.754408 24.259083 0.541895 4.458255 56.154982 -1.816712 13.354568 -6.349009 33.061815 6.425655 1.364526 5.969258 -5.942688 
-1.117960 0.826282 0.980672 96.116850 1.231817 89.952936 6.611099 6.271108 15.001905 -8.334521 -5.204805 29.393338 -7.336425 6.223953 1.944903 0.000000 -0.000000 0.000000 0.468290 2.505321 -22.413319 3.580173 -9.479538 18.317490 -0.965647 -7.153667 -3.159474 0.000000 -0.000000 0.000000 1.477056 -7.228560 9.974153 2.602188 -0.607428 6.936938 0.266189 -1.807481 0.279900 2.096232 -5.201950 -7.032356 3.186064 -5.729328 -4.962891 -25.447677 5.253495 3.766924 -58.004218 -3.979008 11.486236 8.926488 -50.356311 10.210057 10.070689 -6.686828 -7.815040 24.083271 0.890771 4.676572 55.639766 -2.003976 13.155545 -5.383786 34.087392 7.823995 0.909453 5.696176 -7.024386 
-1.072154 0.823038 0.986475 94.116394 1.359492 89.462997 6.437383 6.055895 8.067035 -6.442943 0.193669 44.005797 -6.417296 7.925676 8.390184 0.000000 -0.000000 0.000000 1.863901 1.974049 -18.130490 3.965577 -7.924449 17.584916 -2.198024 -5.675459 -5.741034 0.000000 -0.000000 0.000000 1.827987 -5.421740 10.613745 2.700174 -0.715763 6.432410 0.087703 -1.424571 -0.036103 1.510205 -5.977409 -6.789613 3.952931 -5.130168 -4.371501 -25.596525 5.210282 3.566880 -56.992393 -3.036185 11.145263 6.220754 -50.773793 12.586080 9.969801 -7.094408 -7.910309 23.995202 1.098533 4.701960 54.699302 -2.066162 13.003877 -4.267497 35.858539 8.966035 0.207772 6.088281 -7.312146 
-1.045534 0.821630 0.989425 92.483651 1.193712 89.490930 5.541390 4.498751 3.824792 -4.401447 4.436937 50.517738 0.652562 8.873749 16.887104 0.000000 -0.000000 0.000000 1.855483 2.500258 -15.608908 5.519918 -5.245500 16.235619 -4.310736 -7.724228 -6.542301 0.000000 -0.000000 0.000000 1.889820 -4.232317 9.711597 2.307318 -0.367454 7.970399 0.252083 -1.365677 -1.166655 0.358638 -8.773109 -6.716112 5.154812 -2.356479 -3.066362 -24.969180 4.616209 3.670307 -57.946691 -2.094702 9.473846 5.422523 -51.068856 11.944421 10.857898 -6.816130 -5.254809 22.960751 3.082157 5.699216 55.648103 -2.351855 11.650969 -5.020715 36.972440 5.932910 2.852355 6.559190 -5.424773 
-1.009407 0.818774 0.994880 90.085989 0.876293 88.727274 4.980238 4.829485 -1.471170 -1.213470 7.377361 58.395258 -1.723311 11.821734 5.917696 0.000000 -0.000000 0.000000 2.714290 2.005389 -11.365916 4.999341 -2.734545 14.757780 -3.077016 -7.114492 -8.157918 0.000000 -0.000000 0.000000 1.566596 -2.291137 10.305927 1.968470 -0.193844 7.201420 0.326782 -0.667240 -0.595748 0.495821 -8.600215 -6.692414 5.017157 -2.833567 -2.480631 -24.871159 4.564248 3.365005 -58.228568 -1.353181 8.489672 4.455216 -51.078803 13.438071 10.451788 -7.175305 -5.413648 22.497444 3.319665 5.598618 55.523188 -1.639862 11.163497 -4.149713 38.009185 7.594808 2.187668 6.431229 -7.132887 
-0.972733 0.816438 0.999806 87.929946 0.229546 88.127894 4.185302 4.021317 -6.366638 0.479706 9.742743 62.555867 -0.621762 12.649292 2.360208 0.000000 -0.000000 0.000000 2.700859 1.326198 -6.515602 4.840236 -0.213686 12.071062 -2.832155 -6.456729 -8.560618 0.000000 -0.000000 0.000000 1.017139 -0.388591 10.359368 1.602251 -0.321255 6.719855 0.320049 0.063653 -0.369764 0.211112 -8.974166 -6.111458 5.110459 -2.599026 -1.570327 -24.574984 4.466392 3.344864 -58.702097 -0.134607 7.971383 4.559434 -51.203576 13.280866 10.734049 -7.104602 -5.517059 21.853352 4.206421 5.601185 55.857527 -1.314231 10.945115 -4.508186 39.401414 6.598661 2.984522 5.554049 -8.467642 
